<?xml version="1.0" encoding="UTF-8" standalone="no"?>
<svg
   xmlns:dc="http://purl.org/dc/elements/1.1/"
   xmlns:cc="http://creativecommons.org/ns#"
   xmlns:rdf="http://www.w3.org/1999/02/22-rdf-syntax-ns#"
   xmlns:svg="http://www.w3.org/2000/svg"
   xmlns="http://www.w3.org/2000/svg"
   version="1.1"
   id="svg4224"
   viewBox="0 0 256 256"
   height="256"
   width="256">
  <defs
     id="defs4226" />
  <metadata
     id="metadata4229">
    <rdf:RDF>
      <cc:Work
         rdf:about="">
        <dc:format>image/svg+xml</dc:format>
        <dc:type
           rdf:resource="http://purl.org/dc/dcmitype/StillImage" />
        <dc:title></dc:title>
      </cc:Work>
    </rdf:RDF>
  </metadata>
  <g
     transform="translate(0,-796.3622)"
     id="layer1">
    <g
       transform="matrix(1.4418522,0,0,1.4340661,-2010.7644,1025.1187)"
       id="g6853"
       style="display:inline">
      <g
         style="display:inline"
         id="layer8">
        <g
           transform="matrix(0.70197657,0,0,0.70197657,1153.5051,-477.88231)"
           id="g6899">
          <path
             style="display:inline;fill:#ffcc00"
             d="m 382.13275,606.36078 c 3.22821,-3.22935 4.49324,-4.58288 4.49324,-4.80757 l 0,-0.31275 -9.47581,0 -9.4758,0 0,-4.59855 0,-4.59855 9.48549,0 c 9.39233,0 9.48506,-0.003 9.44097,-0.27737 -0.0245,-0.15255 -2.0405,-2.31596 -4.48001,-4.80757 l -4.43549,-4.53021 6.41903,0 6.41902,0 0.39782,0.38321 c 0.2188,0.21077 3.39485,3.40576 7.05789,7.09999 l 6.66006,6.71678 -7.01412,7.11371 -7.01411,7.11371 -6.48571,0 -6.4857,0 z m 107.64679,2.5088 c -6.61025,-6.61059 -12.01863,-12.11331 -12.01863,-12.22827 0,-0.11497 5.40866,-5.61741 12.01925,-12.22767 l 12.01923,-12.01863 11.14605,0 11.14604,0 -7.92315,7.92768 c -4.68899,4.69167 -7.89739,8.00502 -7.86003,8.11714 0.0526,0.15772 2.76921,0.20113 16.21615,0.25913 l 16.153,0.0697 0,7.87327 0,7.87328 -16.11508,0.0354 c -14.96027,0.0329 -16.12153,0.0522 -16.20516,0.27013 -0.0681,0.17743 1.8409,2.16677 7.82211,8.15139 l 7.91216,7.91669 -11.14665,0 -11.14664,0 z"
             id="path6873" />
          <path
             style="fill:#dc0067;fill-opacity:1;stroke:#dc0067;stroke-width:2.52538133;stroke-miterlimit:4;stroke-dasharray:none;stroke-dashoffset:0;stroke-opacity:1"
             d="m 605.05306,623.66336 c -15.39236,-2.44217 -29.45393,-8.74013 -43.84474,-19.63737 -0.89703,-0.67928 -2.70064,0.37799 -6.15181,3.60615 -18.92683,17.70384 -47.14528,20.61284 -69.44594,7.1591 -12.39642,-7.47863 -22.66757,-21.1948 -26.29224,-35.11087 -1.94523,-7.46822 -1.97233,-22.49087 -0.0536,-29.70087 4.05737,-15.24626 16.50704,-30.79097 29.82441,-37.23891 12.49828,-6.05135 22.73459,-7.26311 42.2157,-4.99742 1.97943,0.23021 2.73362,-0.71772 5.20714,-6.54479 11.82592,-27.85928 38.17372,-48.5051 68.0524,-53.32505 10.23821,-1.6516 27.12769,-0.71392 37.05779,2.0574 31.73491,8.85666 56.31701,35.26871 63.17702,67.88007 1.9333,9.19057 1.87491,26.20565 -0.12338,35.95356 -6.71456,32.75454 -32.18528,59.55052 -64.56887,67.92843 -9.21984,2.38525 -26.36544,3.3491 -35.05389,1.97057 z m -76.02258,-3.54589 c 8.83019,-2.25436 17.37078,-6.75608 23.93199,-12.61448 l 5.78954,-5.16939 -6.32529,-7.25958 c -18.4537,-21.17946 -26.15397,-47.74874 -21.52125,-74.25771 0.90538,-5.18067 1.41142,-9.7992 1.12453,-10.26339 -0.28689,-0.4642 -3.78203,-1.39393 -7.76698,-2.06608 -17.75885,-2.99542 -35.4858,3.02437 -48.81378,16.57638 -22.61404,22.99416 -21.97959,58.20508 1.46147,81.1093 5.94391,5.80779 17.22129,12.00893 25.46781,14.00409 7.4569,1.80413 19.45794,1.7775 26.65196,-0.0592 l 0,5e-5 z m 111.84541,-15.37838 c 30.44796,-10.50945 49.26505,-36.73467 49.47115,-68.94752 0.0839,-13.10931 -1.69263,-20.52717 -7.98279,-33.33245 -3.92553,-7.99145 -6.16089,-11.03459 -13.38346,-18.21981 -14.44898,-14.37428 -30.70356,-21.17872 -50.59212,-21.17872 -28.0924,0 -52.51493,15.05001 -65.07446,40.10115 -5.54751,11.06503 -5.61416,12.48458 -0.7664,16.32408 l 4.04837,3.20636 1.7415,-5.3196 c 5.78891,-17.68277 17.55205,-31.02636 34.05965,-38.63577 24.11182,-11.11469 53.64357,-5.16553 71.53518,14.41075 11.03741,12.07668 16.33621,25.93515 16.305,42.64401 -0.0255,13.62325 -3.09207,23.83319 -10.47293,34.8685 -20.42101,30.53195 -62.07268,36.7306 -90.97075,13.53837 l -6.27268,-5.03416 -1.90261,4.83015 -1.90262,4.83015 4.35961,3.87809 c 5.68209,5.05452 20.71206,12.26825 29.65578,14.23349 11.38985,2.50273 27.15992,1.5944 38.14458,-2.19707 z m -2.85777,-11.16915 c 14.95584,-5.48183 27.26448,-16.29986 33.86162,-29.76089 5.80533,-11.84543 7.46937,-19.35308 6.88145,-31.04725 -2.60783,-51.87162 -64.24981,-77.19416 -101.76437,-41.80482 -3.82785,3.611 -8.42215,8.84445 -10.20957,11.6299 -3.443,5.36545 -7.99758,16.81733 -7.99758,20.10884 0,1.0805 1.99725,4.88182 4.43833,8.44738 7.94364,11.60288 11.3227,23.8793 10.3758,37.69618 l -0.56873,8.29897 5.46715,4.87281 c 6.06176,5.40275 15.65008,10.56338 23.88425,12.85499 8.18654,2.27835 27.82893,1.56385 35.63165,-1.29611 z m -68.13655,-11.74579 c 1.24615,-4.45079 1.20577,-4.6112 -2.39626,-9.51814 -7.89095,-10.74962 -11.93385,-24.2335 -11.63876,-38.81761 l 0.18499,-9.14337 -3.41916,-2.83585 c -1.88053,-1.55972 -3.75142,-2.84809 -4.15753,-2.86303 -1.52128,-0.056 -2.29186,5.89674 -2.28486,17.65049 0.008,13.81833 2.0369,22.13894 8.32975,34.16466 3.71486,7.09914 11.96122,17.22063 13.33736,16.37013 0.42734,-0.26411 1.34735,-2.51738 2.04447,-5.00728 z m 2.17575,-11.93993 c 0.51314,-16.23895 -2.57611,-27.66112 -10.31354,-38.13326 l -3.35862,-4.54569 -0.76891,3.53554 c -1.63518,7.51868 2.23125,26.3568 7.04918,34.34518 3.74825,6.2148 5.79651,9.07807 6.49861,9.08448 0.41669,0.004 0.81866,-1.92502 0.89328,-4.28625 z"
             id="path6892"
             transform="translate(-112.14286,45)" />
        </g>
      </g>
    </g>
  </g>
</svg>
